<?xml version="1.0" encoding="UTF-8" standalone="no"?>
<!-- Created with Inkscape (http://www.inkscape.org/) -->

<svg
   width="44mm"
   height="44mm"
   viewBox="0 0 44 44"
   version="1.1"
   id="svg8"
   inkscape:version="1.2.1 (9c6d41e410, 2022-07-14)"
   sodipodi:docname="favicon.svg"
   inkscape:export-filename="test.png"
   inkscape:export-xdpi="18.880472"
   inkscape:export-ydpi="18.880472"
   xmlns:inkscape="http://www.inkscape.org/namespaces/inkscape"
   xmlns:sodipodi="http://sodipodi.sourceforge.net/DTD/sodipodi-0.dtd"
   xmlns="http://www.w3.org/2000/svg"
   xmlns:svg="http://www.w3.org/2000/svg"
   xmlns:rdf="http://www.w3.org/1999/02/22-rdf-syntax-ns#"
   xmlns:cc="http://creativecommons.org/ns#"
   xmlns:dc="http://purl.org/dc/elements/1.1/">
  <defs
     id="defs2" />
  <sodipodi:namedview
     id="base"
     pagecolor="#ffffff"
     bordercolor="#666666"
     borderopacity="1.0"
     inkscape:pageopacity="0.0"
     inkscape:pageshadow="2"
     inkscape:zoom="2.8"
     inkscape:cx="-43.214286"
     inkscape:cy="92.142857"
     inkscape:document-units="mm"
     inkscape:current-layer="layer2"
     showgrid="false"
     fit-margin-top="0"
     fit-margin-left="0"
     fit-margin-right="0"
     fit-margin-bottom="0"
     inkscape:window-width="1600"
     inkscape:window-height="837"
     inkscape:window-x="1912"
     inkscape:window-y="-8"
     inkscape:window-maximized="1"
     inkscape:showpageshadow="0"
     inkscape:pagecheckerboard="0"
     inkscape:deskcolor="#d1d1d1" />
  <metadata
     id="metadata5">
    <rdf:RDF>
      <cc:Work
         rdf:about="">
        <dc:format>image/svg+xml</dc:format>
        <dc:type
           rdf:resource="http://purl.org/dc/dcmitype/StillImage" />
      </cc:Work>
    </rdf:RDF>
  </metadata>
  <g
     inkscape:groupmode="layer"
     id="layer2"
     inkscape:label="Layer 2">
    <rect
       style="opacity:1;fill:#ffffff;fill-opacity:1;stroke:none;stroke-width:0;stroke-linecap:round;stroke-linejoin:round;stroke-miterlimit:4;stroke-dasharray:none;stroke-opacity:0.980296"
       id="rect226"
       width="20.316219"
       height="19.560268"
       x="3.2127976"
       y="2.4568453" />
    <rect
       style="opacity:1;fill:#ffffff;fill-opacity:1;stroke:none;stroke-width:0;stroke-linecap:round;stroke-linejoin:round;stroke-miterlimit:4;stroke-dasharray:none;stroke-opacity:0.980296"
       id="rect418"
       width="18.898809"
       height="21.639137"
       x="22.300594"
       y="2.1733632" />
    <rect
       style="opacity:1;fill:#ffffff;fill-opacity:1;stroke:none;stroke-width:0;stroke-linecap:round;stroke-linejoin:round;stroke-miterlimit:4;stroke-dasharray:none;stroke-opacity:0.980296"
       id="rect420"
       width="18.42634"
       height="19.087799"
       x="22.111607"
       y="21.828125"
       ry="0" />
    <rect
       style="opacity:1;fill:#ffffff;fill-opacity:1;stroke:none;stroke-width:0;stroke-linecap:round;stroke-linejoin:round;stroke-miterlimit:4;stroke-dasharray:none;stroke-opacity:0.980296"
       id="rect422"
       width="5.0081844"
       height="13.040178"
       x="36.285713"
       y="19.465773" />
    <rect
       style="opacity:1;fill:#ffffff;fill-opacity:1;stroke:none;stroke-width:0;stroke-linecap:round;stroke-linejoin:round;stroke-miterlimit:4;stroke-dasharray:none;stroke-opacity:0.980296"
       id="rect424"
       width="20.505209"
       height="19.938244"
       x="2.5513394"
       y="20.694197" />
  </g>
  <g
     inkscape:label="Layer 1"
     inkscape:groupmode="layer"
     id="layer1"
     transform="translate(-84.233783,-125.56503)">
    <path
       style="fill:#00467f;stroke-width:1;fill-opacity:1"
       d="m 85.86401,167.71138 c 0,-0.37461 -0.246065,-1.30538 -0.546811,-2.06838 -0.52734,-1.33787 -0.531951,-1.46305 -0.129507,-3.51552 0.3012,-1.53612 0.413256,-3.63733 0.402752,-7.55221 -0.008,-2.98318 0.05311,-5.72162 0.135806,-6.08542 0.0827,-0.3638 0.264275,-4.65005 0.403507,-9.525 0.139232,-4.87494 0.330016,-9.53233 0.423965,-10.34975 l 0.170816,-1.48621 1.752549,-0.16556 c 2.417319,-0.22835 9.151016,-0.18288 10.703102,0.0723 0.866881,0.1425 1.887631,0.0824 3.175001,-0.18684 1.7328,-0.36245 2.27599,-0.35398 6.26298,0.0977 3.39889,0.38502 6.05495,0.48517 11.99434,0.45223 6.76299,-0.0375 7.61102,0.004 7.47277,0.3641 -0.0858,0.22353 -0.27584,3.57958 -0.42237,7.4579 -0.15197,4.02253 -0.55955,9.60866 -0.94885,13.00462 -0.73418,6.40447 -0.76948,12.32097 -0.0856,14.35145 0.28776,0.85443 0.26493,1.19149 -0.16674,2.46144 -0.87119,2.56301 -0.33959,2.40974 -9.0245,2.60199 -4.19562,0.0929 -12.5695,0.20966 -18.608607,0.25952 -6.039114,0.0499 -11.426692,0.18114 -11.972396,0.29174 -0.941653,0.19084 -0.992187,0.16639 -0.992187,-0.48003 z m 24.20937,-1.74803 c 7.13052,-0.13826 13.22853,-0.32921 13.55113,-0.42434 0.32261,-0.0951 0.64413,-0.36846 0.71451,-0.60741 0.0704,-0.23895 0.19444,-2.56088 0.27568,-5.15985 0.0813,-2.59897 0.19427,-4.80162 0.25116,-4.89479 0.0569,-0.0932 0.17783,-5.89531 0.26875,-12.89365 l 0.16531,-12.72426 -4.57056,-0.18126 c -8.47687,-0.33618 -12.50281,-0.47721 -13.5664,-0.47525 -9.580639,0.0177 -13.899973,0.0757 -15.820157,0.21249 -2.186792,0.15574 -2.348641,0.20866 -2.696761,0.88185 -0.553584,1.07051 -0.743512,3.88225 -0.786886,11.64922 -0.02154,3.8563 -0.139142,10.89527 -0.261349,15.64215 l -0.222195,8.63069 2.617637,0.30048 c 3.155577,0.36223 4.652382,0.45182 6.057219,0.36256 0.582084,-0.037 6.892392,-0.18037 14.022912,-0.31863 z m -18.061158,-1.24689 c -0.730132,-0.0762 -1.355651,-0.3456 -1.773911,-0.76386 -0.355344,-0.35534 -0.770556,-0.64608 -0.922691,-0.64608 -0.317109,0 -0.376275,-7.13197 -0.103529,-12.47957 l 0.170935,-3.35144 0.952471,-0.20247 c 0.523859,-0.11135 4.544169,-0.21055 8.934022,-0.22043 4.389851,-0.01 8.076761,-0.11316 8.193141,-0.22951 0.11638,-0.11635 0.21562,-3.95611 0.22053,-8.5328 0.005,-4.57668 0.0734,-8.32125 0.15222,-8.32126 0.0788,-1e-5 1.56709,0.19099 3.3073,0.42445 2.34898,0.31512 4.17838,0.38168 7.10191,0.25837 2.16585,-0.0913 4.04786,-0.23403 4.18223,-0.31708 0.13437,-0.083 0.55126,-0.074 0.92642,0.0202 l 0.68211,0.1712 -0.12414,8.18835 c -0.0683,4.50359 -0.18199,8.24619 -0.2527,8.3169 -0.0707,0.0707 -1.90613,0.26066 -4.07873,0.42214 -3.25774,0.24212 -4.59162,0.22243 -7.60945,-0.11236 -2.0126,-0.22326 -3.82831,-0.34108 -4.0349,-0.2618 -0.27624,0.10601 -0.38145,0.67917 -0.39767,2.16635 -0.0121,1.11222 -0.0643,2.31987 -0.11601,2.68368 -0.0517,0.3638 -0.1795,3.39989 -0.28404,6.74687 l -0.19008,6.08542 -6.9038,0.0363 c -3.797095,0.0199 -7.411332,-0.0168 -8.031638,-0.0815 z m 10.640518,-2.01112 c 1.08846,-0.61651 2.79043,-2.60236 2.79043,-3.25585 0,-0.25917 -0.30883,-0.37504 -0.99218,-0.37225 -1.23383,0.005 -1.56102,0.20868 -2.12903,1.32509 -1.04548,2.05486 -5.668737,2.09772 -7.78298,0.0721 -2.52707,-2.42108 -1.356508,-8.81796 1.836755,-10.03748 0.831996,-0.31774 1.532304,-0.3852 2.643279,-0.25463 2.159596,0.25382 3.032706,0.83756 3.513746,2.34921 l 0.39687,1.24717 1.26707,0.001 1.26707,0.001 -0.0764,-2.3151 -0.0765,-2.31511 -0.85989,-0.0829 c -0.76331,-0.0736 -0.8599,-0.008 -0.8599,0.5797 0,0.83205 -0.36549,1.07757 -0.80885,0.54334 -0.5682,-0.68462 -2.08588,-1.17242 -3.647765,-1.17242 -1.378286,0 -4.396684,0.72903 -5.814552,1.40439 -1.617389,0.77039 -2.618157,2.49937 -2.856758,4.9355 -0.131416,1.34177 -0.04461,1.6665 1.029588,3.85136 0.719917,1.46428 1.549339,2.71638 2.147012,3.24115 l 0.973908,0.8551 3.496523,-0.004 c 3.128584,-0.004 3.606594,-0.0667 4.542544,-0.59683 z m 15.19923,-17.2909 c 0.0581,-0.0497 -0.0312,-0.91911 -0.19844,-1.93192 -0.51128,-3.09596 -0.4526,-3.3857 1.14145,-5.63559 1.45508,-2.05376 2.29925,-3.53677 2.63937,-4.63676 0.17359,-0.56142 0.11024,-0.59532 -1.11258,-0.59532 -1.43834,0 -1.78646,0.17755 -1.35871,0.69296 0.21449,0.25844 0.0666,0.65046 -0.59072,1.56576 -0.48228,0.67155 -0.99902,1.58998 -1.14833,2.04096 -0.1493,0.45097 -0.41027,0.86524 -0.57991,0.92059 -0.32825,0.1071 -2.73426,-3.40996 -2.73426,-3.99689 0,-0.68215 -1.0145,-1.25709 -2.48624,-1.40898 -1.21905,-0.12582 -1.48251,-0.0813 -1.48251,0.25045 0,0.2219 0.28761,0.59191 0.63914,0.82224 0.35152,0.23033 1.30956,1.43681 2.12898,2.68108 0.81941,1.24426 1.85589,2.67921 2.3033,3.18878 0.67916,0.77352 0.78471,1.06758 0.63931,1.78112 -0.0958,0.47005 -0.24529,1.71776 -0.33224,2.77269 l -0.15808,1.91805 1.2924,-0.16938 c 0.71082,-0.0932 1.33995,-0.21009 1.39807,-0.25984 z m -5.73117,17.46383 c -1.55514,-0.75236 -2.50188,-1.82895 -3.10056,-3.52579 -0.49808,-1.41169 -0.51825,-3.50031 -0.0445,-4.60493 0.19667,-0.45856 0.50138,-1.42905 0.67713,-2.15666 0.82155,-3.40126 4.20388,-4.67322 8.35799,-3.1431 2.43334,0.89629 2.88812,0.91918 2.99703,0.15082 0.0647,-0.4566 0.23189,-0.59034 0.66145,-0.52917 0.53312,0.0759 0.5804,0.24993 0.6513,2.39698 l 0.0764,2.3151 h -1.06864 c -0.93067,0 -1.06913,-0.0769 -1.07253,-0.59531 -0.0114,-1.74031 -1.55083,-2.56824 -4.78906,-2.57567 -2.69325,-0.006 -3.39548,0.84249 -3.93735,4.75848 -0.36777,2.65775 1.26113,5.61423 3.58143,6.50036 1.03035,0.3935 1.35283,0.41083 2.30978,0.12411 0.61174,-0.18328 1.47452,-0.71736 1.91731,-1.18685 0.66976,-0.71015 1.06152,-0.88009 2.3308,-1.01109 1.47567,-0.15231 1.52003,-0.13853 1.35209,0.41998 -0.26414,0.87839 -1.70963,2.30366 -2.89339,2.8529 -0.82122,0.38103 -1.68077,0.49019 -3.83646,0.4872 -2.43094,-0.003 -2.9521,-0.088 -4.17029,-0.67736 z m -10.69693,-17.4821 c -1.35461,-0.35564 -1.523871,-0.47916 -1.68624,-1.23051 -0.260162,-1.20388 -1.307605,-3.18157 -2.25887,-4.265 -0.926243,-1.05493 -1.769312,-1.19926 -2.471687,-0.42315 -0.418716,0.46268 -0.436574,0.76461 -0.18316,3.09667 0.154435,1.4212 0.255463,2.60777 0.224507,2.63681 -0.03096,0.029 -0.759804,0.1399 -1.61966,0.24636 -1.367738,0.16934 -1.543162,0.14088 -1.401846,-0.22738 0.08884,-0.23151 0.29916,-1.17033 0.467376,-2.08625 0.168217,-0.91593 0.403882,-1.85892 0.5237,-2.09553 0.132361,-0.26138 0.08345,-0.62479 -0.124625,-0.92604 -0.220762,-0.31962 -0.392211,-1.81229 -0.482417,-4.20001 -0.07697,-2.03729 -0.219536,-3.89819 -0.316818,-4.13534 -0.150692,-0.36734 0.08989,-0.44951 1.625148,-0.55505 2.003318,-0.13773 2.13742,-0.10647 1.716923,0.4002 -0.274556,0.33082 -0.87228,4.95587 -0.671133,5.19307 0.16532,0.19495 1.262972,-0.42793 2.237089,-1.26948 0.523428,-0.45219 1.356866,-1.09416 1.852083,-1.4266 0.495217,-0.33244 1.13852,-1.04691 1.42956,-1.58771 0.48281,-0.89715 0.62766,-0.98334 1.65364,-0.984 0.67462,-4.2e-4 1.12448,0.12161 1.12448,0.30504 0,0.44001 -1.18191,1.93725 -3.167762,4.01293 -0.949863,0.99282 -1.727023,1.92334 -1.727023,2.06781 0,0.14448 0.565547,0.87464 1.256771,1.62258 0.691224,0.74795 1.256764,1.46163 1.256764,1.58596 0,0.37069 1.92995,2.56486 2.38228,2.70842 0.23003,0.073 0.60704,0.54929 0.8378,1.0584 l 0.41956,0.92565 -0.69534,-0.0263 c -0.38244,-0.0144 -1.37293,-0.20416 -2.2011,-0.42159 z"
       id="path5746"
       inkscape:connector-curvature="0" />
  </g>
</svg>
